<svg xmlns="http://www.w3.org/2000/svg" viewBox="0 0 64 64" width="64" height="64">
  <rect width="64" height="64" rx="14" fill="#075E54"/>
  <path d="M32 14c-9.94 0-18 7.5-18 16.8 0 3.9 1.4 7.5 3.9 10.4L16 50l9.4-2.5c2.1 1 4.5 1.6 6.9 1.7h.1c9.94 0 18-7.5 18-16.8S41.94 14 32 14Z" fill="#25D366"/>
  <path d="M25.6 22.9c-.4-.9-.8-.9-1.2-.9h-1c-.3 0-.9.1-1.3.6-.5.5-1.8 1.7-1.8 4.2s1.8 4.9 2.1 5.2c.3.4 3.5 5.5 8.6 7.5 4.3 1.7 5.1 1.4 6.1 1.3 1-.1 3.1-1.3 3.5-2.5.4-1.2.4-2.2.3-2.5-.1-.2-.4-.4-.9-.6-.4-.2-2.7-1.3-3.1-1.5-.4-.2-.7-.2-1 .2-.3.4-1.2 1.5-1.5 1.8-.3.3-.5.4-.9.1-.4-.2-1.8-.7-3.4-2.1-1.3-1.1-2.1-2.5-2.4-2.9-.2-.4 0-.6.2-.8.2-.2.5-.5.7-.8.2-.2.3-.4.5-.7.2-.3.1-.6 0-.8-.1-.2-1-2.5-1.4-3.4Z" fill="#075E54"/>
</svg>
